<svg xmlns="http://www.w3.org/2000/svg" xmlns:xlink="http://www.w3.org/1999/xlink" viewBox="0 0 500 500"><defs><clipPath id="freepik--clip-path--inject-116"><path d="M171.07,317.32s1.79-9,8.78-11,9.71-4.07,9.71-4.07S187.4,316.21,171.07,317.32Z" style="fill:#57E1BA"></path></clipPath><clipPath id="freepik--clip-path-2--inject-116"><path d="M195.05,320.54s1.13-5.69,5.54-6.92,6.13-2.57,6.13-2.57S205.36,319.84,195.05,320.54Z" style="fill:#57E1BA"></path></clipPath><clipPath id="freepik--clip-path-3--inject-116"><path d="M147.92,320.52s1.12-5.69,5.54-6.92a19.21,19.21,0,0,0,6.13-2.57S158.22,319.82,147.92,320.52Z" style="fill:#57E1BA"></path></clipPath></defs><g id="freepik--background-complete--inject-116"><rect x="416.78" y="398.49" width="33.12" height="0.25" style="fill:#ebebeb"></rect><rect x="322.53" y="401.21" width="8.69" height="0.25" style="fill:#ebebeb"></rect><rect x="396.59" y="389.21" width="19.19" height="0.25" style="fill:#ebebeb"></rect><rect x="52.46" y="390.89" width="43.19" height="0.25" style="fill:#ebebeb"></rect><rect x="104.56" y="390.89" width="6.33" height="0.25" style="fill:#ebebeb"></rect><rect x="131.47" y="395.11" width="93.68" height="0.25" style="fill:#ebebeb"></rect><path d="M237,337.8H43.91a5.71,5.71,0,0,1-5.7-5.71V60.66A5.71,5.71,0,0,1,43.91,55H237a5.71,5.71,0,0,1,5.71,5.71V332.09A5.71,5.71,0,0,1,237,337.8ZM43.91,55.2a5.46,5.46,0,0,0-5.45,5.46V332.09a5.46,5.46,0,0,0,5.45,5.46H237a5.47,5.47,0,0,0,5.46-5.46V60.66A5.47,5.47,0,0,0,237,55.2Z" style="fill:#ebebeb"></path><path d="M453.31,337.8H260.21a5.72,5.72,0,0,1-5.71-5.71V60.66A5.72,5.72,0,0,1,260.21,55h193.1A5.71,5.71,0,0,1,459,60.66V332.09A5.71,5.71,0,0,1,453.31,337.8ZM260.21,55.2a5.47,5.47,0,0,0-5.46,5.46V332.09a5.47,5.47,0,0,0,5.46,5.46h193.1a5.47,5.47,0,0,0,5.46-5.46V60.66a5.47,5.47,0,0,0-5.46-5.46Z" style="fill:#ebebeb"></path><rect y="382.4" width="500" height="0.25" style="fill:#ebebeb"></rect><polygon points="449 287.7 444.61 383.36 439.67 383.36 439.79 380.02 378 380.02 378.13 383.36 373.18 383.36 369 287.7 449 287.7" style="fill:#f0f0f0"></polygon><polygon points="439.98 374.92 377.81 374.92 374.74 293.49 443.03 293.49 439.98 374.92" style="fill:#fff"></polygon><polygon points="440.23 316.99 378.17 316.99 377.49 297.42 440.91 297.42 440.23 316.99" style="fill:#ebebeb"></polygon><polygon points="438.04 372.49 379.96 372.49 378.11 319.43 439.9 319.43 438.04 372.49" style="fill:#ebebeb"></polygon><path d="M411.9,306.26a2.83,2.83,0,1,1-2.83-2.83A2.83,2.83,0,0,1,411.9,306.26Z" style="fill:#fff"></path><path d="M384.88,349.23h0a2.05,2.05,0,0,1-2.05-2.05V333.05a2,2,0,0,1,2.05-2.05h0a2,2,0,0,1,2.05,2.05v14.13A2,2,0,0,1,384.88,349.23Z" style="fill:#fff"></path><rect x="398.15" y="270.54" width="3.1" height="3.1" style="fill:#e0e0e0"></rect><path d="M416.83,278.18c0,3.73.58,6.15,1.57,7.7a4.08,4.08,0,0,0,3.46,1.82h5.4a4.08,4.08,0,0,0,3.46-1.82c1-1.55,1.57-4,1.57-7.7,0-5.42-2.36-9.75-3.13-13.22-.28-1.24.65-5.06.65-5.06h-10.5s.93,3.82.65,5.06C419.19,268.43,416.83,272.76,416.83,278.18Z" style="fill:#f0f0f0"></path><path d="M428.06,233.75a5.59,5.59,0,0,0-2.8,1.81c-1,1.37.75,4.6.75,4.6a4.36,4.36,0,0,0,3.78,1.21l2.09-.51s-2.22-6.34-3.8-6.7Z" style="fill:#ebebeb"></path><path d="M436.31,235.26c-.27,2.75-2.6,5.85-5.06,5.61s-4.12-3.75-3.84-6.51,2.28-2.65,4.74-2.4S436.59,232.51,436.31,235.26Z" style="fill:#ebebeb"></path><path d="M429.38,233.12s1.57,1.82,5.54,1.68C434.92,234.8,428.16,237.68,429.38,233.12Z" style="fill:#ebebeb"></path><path d="M431.11,232.89s2.2,0,2.07.93c0,0,1.82.24,1.72-.56S431.11,232.89,431.11,232.89Z" style="fill:#ebebeb"></path><path d="M429.38,233.12s1.57,1.82,5.54,1.68C434.92,234.8,428.16,237.68,429.38,233.12Z" style="fill:#e0e0e0"></path><path d="M431.11,232.89s2.2,0,2.07.93c0,0,1.82.24,1.72-.56S431.11,232.89,431.11,232.89Z" style="fill:#e0e0e0"></path><path d="M427,241a4,4,0,0,0,3.47,2.43,5.41,5.41,0,0,0,4-1.6,8.25,8.25,0,0,0,2.11-3.89c.1-.37.31-1.31-.16-1.55s-.84.36-1.11.62a14.88,14.88,0,0,1-2.48,2,14,14,0,0,1-2.82,1.34C429.8,240.4,427.12,241.2,427,241Z" style="fill:#ebebeb"></path><path d="M438.43,237.51a3.57,3.57,0,0,1-1.06,3.3,6.31,6.31,0,0,1-2.08,1.14c-.52.19-1.17.34-1.57,0s-.26-1.13,0-1.68c.34-.85.7-1.7,1.09-2.53a9.27,9.27,0,0,1,1.19-2.4c.51-.5,1-.05,1.52.48A3.51,3.51,0,0,1,438.43,237.51Z" style="fill:#ebebeb"></path><path d="M427.93,239.57a2.52,2.52,0,0,1-1.86-1.95c-.13-.69.18-2.33,1.05-2.38A11.88,11.88,0,0,0,427.93,239.57Z" style="fill:#e0e0e0"></path><path d="M434.61,240.05a2.83,2.83,0,0,0,2.23-1.49c.24-.46.52-3-.41-2.07-.31.3-.47,1.39-.68,1.81A8.49,8.49,0,0,1,434.61,240.05Z" style="fill:#e0e0e0"></path><path d="M430.94,240.94a2.08,2.08,0,0,0,2.47.54c-.18.46-1.77.57-2.26.62-1.29.13-1.82-.53-2.91-1.24C428.24,240.86,430.06,241.5,430.94,240.94Z" style="fill:#e0e0e0"></path><polygon points="423.11 284.73 426.14 254.12 430.15 243.26 430.85 243.52 426.85 254.33 423.69 285.56 423.11 284.73" style="fill:#e6e6e6"></polygon><path d="M426.83,254.06l-.66.33a20.32,20.32,0,0,1-1.16-3.2,26.45,26.45,0,0,0-2.56-6.21l.63-.39a26.64,26.64,0,0,1,2.63,6.38A21.32,21.32,0,0,0,426.83,254.06Z" style="fill:#e6e6e6"></path><path d="M428.46,250a4.32,4.32,0,0,0,2.75-1.26,8.67,8.67,0,0,0,1.7-3.06c-1.35.14-2.6-.74-4-.83a3.52,3.52,0,0,0-2.88,1.19c-.91,1.06-1.45,2.35-.94,3A4.56,4.56,0,0,0,428.46,250Z" style="fill:#f0f0f0"></path><path d="M417.62,246.73A5.16,5.16,0,0,1,422,246a3.91,3.91,0,0,1,2.37,2.64,2.43,2.43,0,0,1-2.32.91,7.23,7.23,0,0,1-2.44-.92,7,7,0,0,0-2.44-.92Z" style="fill:#f0f0f0"></path><path d="M424.3,247.31c-1.75.2-3.33.55-4.92-1.45-1.07-1.34-.73-3.36-.65-5a35.73,35.73,0,0,1,5.74,2.43A2.8,2.8,0,0,1,426,245.2a1.61,1.61,0,0,1-1.28,1.82C424.71,247,424.3,247.31,424.3,247.31Z" style="fill:#f0f0f0"></path><path d="M419.27,271.12a14.65,14.65,0,0,0-1.14,6.28c0,.4.17.86.46.93s.54-.26.63-.63a4.3,4.3,0,0,0,.07-1.14c0-3.28,1.78-6,2.12-9.25.1-.91-.14-3.78-.67-1.67C420.26,267.52,419.93,269.28,419.27,271.12Z" style="fill:#fff"></path><rect x="275.1" y="77.32" width="78.78" height="127.71" style="fill:#e0e0e0"></rect><rect x="278" y="77.32" width="78.78" height="127.71" style="fill:#f0f0f0"></rect><rect x="281.84" y="82.51" width="70.96" height="62.33" style="fill:#fff"></rect><rect x="350.3" y="82.51" width="2.5" height="115.04" style="fill:#e0e0e0"></rect><rect x="314.7" y="111.75" width="2.78" height="68.96" transform="translate(169.87 462.32) rotate(-90)" style="fill:#e0e0e0"></rect><rect x="280.5" y="140.17" width="72.3" height="4.67" style="fill:#f0f0f0"></rect><rect x="350.77" y="77.32" width="78.78" height="127.71" style="fill:#e0e0e0"></rect><rect x="353.67" y="77.32" width="78.78" height="127.71" style="fill:#f0f0f0"></rect><rect x="357.5" y="82.51" width="70.96" height="62.33" style="fill:#fff"></rect><rect x="425.97" y="82.51" width="2.5" height="115.04" style="fill:#e0e0e0"></rect><rect x="390.37" y="111.75" width="2.78" height="68.96" transform="translate(245.53 537.99) rotate(-90)" style="fill:#e0e0e0"></rect><rect x="356.16" y="140.17" width="72.3" height="4.67" style="fill:#f0f0f0"></rect><path d="M84,342.86s2.91-32.21-9.89-47.91,10-1.41,14,14.25c0,0,.76-29-12-47.75s9-4.72,12.8,15.76c0,0,.72-25.86-5.66-39.56s3.14-5.55,7.34,3S92.68,272,92.68,272s4.47-42.1,13-39.82-9.15,31.65-10.56,46c0,0,7.72-20,15.41-17S99.78,268.4,94.1,297.51L92.43,311s7-19.66,13.36-14.49-15.55,18.06-18,46.87Z" style="fill:#ebebeb"></path><path d="M85.34,344.53s-2.73-39.83,13.49-58.81-12.3-2.05-17.7,17.15c0,0-.16-35.78,16.11-58.54s-11-6.11-16.21,19c0,0-.2-31.92,8-48.63s-3.72-6.95-9.14,3.49-3.45,38.55-3.45,38.55-4.39-52.09-14.93-49.55S72,246.56,73.35,264.29c0,0-9-24.92-18.56-21.42s13,9.28,19.26,45.38L75.74,305s-8.09-24.47-16.1-18.31,18.7,22.78,21,58.42Z" style="fill:#f0f0f0"></path><path d="M110.54,364.39c0,10.93-11.85,19.8-26.47,19.8s-26.48-8.87-26.48-19.8c0-4.93,2.4-9.42,6.38-12.88l-3.13-13.25h46.45l-3.13,13.25C108.14,355,110.54,359.46,110.54,364.39Z" style="fill:#ebebeb"></path></g><g id="freepik--Shadow--inject-116"><ellipse id="freepik--path--inject-116" cx="250" cy="415.69" rx="193.89" ry="11.32" style="fill:#f5f5f5"></ellipse></g><g id="freepik--Device--inject-116"><path d="M113.62,92.79a8.21,8.21,0,0,0,8,7.38h52.22a6.65,6.65,0,0,0,6.73-7.38l-.69-7.91h-67Z" style="fill:#57E1BA"></path><path d="M193.71,80.18H98.62a19.84,19.84,0,0,0-20.06,22l20,228.41a24.5,24.5,0,0,0,23.9,22h95.09a19.84,19.84,0,0,0,20.06-22l-20-228.41A24.5,24.5,0,0,0,193.71,80.18Z" style="fill:#57E1BA"></path><g style="opacity:0.5"><path d="M113.62,92.79a8.21,8.21,0,0,0,8,7.38h52.22a6.65,6.65,0,0,0,6.73-7.38l-.69-7.91h-67Z" style="fill:#fff"></path><path d="M193.71,80.18H98.62a19.84,19.84,0,0,0-20.06,22l20,228.41a24.5,24.5,0,0,0,23.9,22h95.09a19.84,19.84,0,0,0,20.06-22l-20-228.41A24.5,24.5,0,0,0,193.71,80.18Z" style="fill:#fff"></path></g><g style="opacity:0.4"><path d="M113.62,92.79a8.21,8.21,0,0,0,8,7.38h52.22a6.65,6.65,0,0,0,6.73-7.38l-.69-7.91h-67Z" style="fill:#fff"></path></g><path d="M200,84.87H104.9A15.68,15.68,0,0,0,89,102.27l20,228.41a19.36,19.36,0,0,0,18.92,17.39H223a15.68,15.68,0,0,0,15.87-17.39l-20-228.41A19.37,19.37,0,0,0,200,84.87Z" style="fill:#57E1BA"></path><path d="M200,84.87H104.9A15.68,15.68,0,0,0,89,102.27l20,228.41a19.36,19.36,0,0,0,18.92,17.39H223a15.68,15.68,0,0,0,15.87-17.39l-20-228.41A19.37,19.37,0,0,0,200,84.87Z" style="opacity:0.30000000000000004"></path><ellipse cx="213.35" cy="104.87" rx="1.7" ry="1.86" transform="translate(-9.92 186.51) rotate(-46.26)" style="fill:#fff"></ellipse><path d="M215.64,110.69a1.59,1.59,0,0,1-1.62,1.77,2,2,0,0,1-1.93-1.77,1.6,1.6,0,0,1,1.62-1.78A2,2,0,0,1,215.64,110.69Z" style="fill:#fff"></path><path d="M216.15,116.51a1.6,1.6,0,0,1-1.62,1.78,2,2,0,0,1-1.93-1.78,1.6,1.6,0,0,1,1.62-1.78A2,2,0,0,1,216.15,116.51Z" style="fill:#fff"></path><path d="M110.87,110.53a7,7,0,0,1-7.07,7.76,8.63,8.63,0,0,1-8.43-7.76,7,7,0,0,1,7.07-7.75A8.62,8.62,0,0,1,110.87,110.53Z" style="fill:#fff"></path><polygon points="137.62 112.63 115.75 112.63 115.38 108.44 137.25 108.44 137.62 112.63" style="fill:#fff"></polygon><path d="M199.59,80.28H104.5a19.85,19.85,0,0,0-20.06,22l20,228.41a24.5,24.5,0,0,0,23.9,22h95.09a19.84,19.84,0,0,0,20.06-22l-20-228.41A24.5,24.5,0,0,0,199.59,80.28Zm39.3,250.4A15.68,15.68,0,0,1,223,348.07H127.93A19.36,19.36,0,0,1,109,330.68L89,102.27a15.68,15.68,0,0,1,15.87-17.4H200a19.37,19.37,0,0,1,18.92,17.4Z" style="fill:#263238"></path><path d="M118.81,85h0a13.29,13.29,0,0,0,13,12h43.08a10.78,10.78,0,0,0,10.9-12h-67Z" style="fill:#263238"></path><polygon points="238.42 325.29 108.54 325.29 91.05 125.42 220.93 125.42 238.42 325.29" style="fill:#fff"></polygon></g><g id="freepik--Nature--inject-116"><path d="M139.79,206.14l-10.13-.59a2,2,0,0,0-1.06.24h0c-3.62,2.92-7.07,1-8.57-.18a3.68,3.68,0,0,0-2-.74l-11.29-.66c-4.23-.25-4.38-6.27-.18-7.43l.16-.05c-3.88-4,7-11.2,15.93.23-.3-3.65,8.88-1.8,11,3.28C135.16,197.07,143.28,203.21,139.79,206.14Z" style="fill:#57E1BA"></path><path d="M198.61,177.05l-16.44-.13a3.23,3.23,0,0,0-1.69.48h0c-5.61,5-11.37,2.15-13.89.42a5.9,5.9,0,0,0-3.31-1L145,176.64c-6.87-.06-7.62-9.78-.91-12l.26-.09c-6.61-6.09,10.34-18.7,25.79-.94-.78-5.89,14.23-3.65,18.13,4.4C190.38,162.75,204,172,198.61,177.05Z" style="fill:#57E1BA"></path><path d="M198.61,177.05l-16.44-.13a3.23,3.23,0,0,0-1.69.48h0c-5.61,5-11.37,2.15-13.89.42a5.9,5.9,0,0,0-3.31-1L145,176.64c-6.87-.06-7.62-9.78-.91-12l.26-.09c-6.61-6.09,10.34-18.7,25.79-.94-.78-5.89,14.23-3.65,18.13,4.4C190.38,162.75,204,172,198.61,177.05Z" style="fill:#fff;opacity:0.8"></path><path d="M218.9,216.71l-5.51-.11-.46.2a9.05,9.05,0,0,1-7.82-.36h0l-4.61-.09s-4.29-1.7-3.65-6,7.09-.58,7.09-.58-1.86-6.05,4.42-4.22a9.34,9.34,0,0,1,6.78,7.79S223.45,212.05,218.9,216.71Z" style="fill:#57E1BA"></path><path d="M139.79,206.14l-10.13-.59a2,2,0,0,0-1.06.24h0c-3.62,2.92-7.07,1-8.57-.18a3.68,3.68,0,0,0-2-.74l-11.29-.66c-4.23-.25-4.38-6.27-.18-7.43l.16-.05c-3.88-4,7-11.2,15.93.23-.3-3.65,8.88-1.8,11,3.28C135.16,197.07,143.28,203.21,139.79,206.14Z" style="fill:#fff;opacity:0.8"></path><path d="M218.9,216.71l-5.51-.11-.46.2a9.05,9.05,0,0,1-7.82-.36h0l-4.61-.09s-4.29-1.7-3.65-6,7.09-.58,7.09-.58-1.86-6.05,4.42-4.22a9.34,9.34,0,0,1,6.78,7.79S223.45,212.05,218.9,216.71Z" style="fill:#fff;opacity:0.8"></path><path d="M238.42,325.29l-13.4-40L183.19,243.9l-14.25-47.11s-33.52,26.8-34.48,27.49-13.4,70.87-14.46,72-11,13.39-11,13.39l-.47,15.67Z" style="fill:#57E1BA"></path><path d="M238.42,325.29l-13.4-40L183.19,243.9l-14.25-47.11s-33.52,26.8-34.48,27.49-13.4,70.87-14.46,72-11,13.39-11,13.39l-.47,15.67Z" style="fill:#fff;opacity:0.8"></path><polygon points="238.42 325.29 219.04 294.96 190.64 273.76 185.32 300.6 178.17 270.07 170.04 280.48 171.81 244.59 170.4 233.1 165.63 240.72 168.94 196.79 134.46 224.28 120 296.23 109.01 309.62 108.54 325.29 238.42 325.29" style="fill:#57E1BA"></polygon><polygon points="238.42 325.29 219.04 294.96 190.64 273.76 185.32 300.6 178.17 270.07 170.04 280.48 171.81 244.59 170.4 233.1 165.63 240.72 168.94 196.79 134.46 224.28 120 296.23 109.01 309.62 108.54 325.29 238.42 325.29" style="fill:#fff;opacity:0.6000000000000001"></polygon><path d="M164.83,199.61,154.49,229.8,146,235.1s-4.5,14.75-4.45,13.81.52-17.47.52-17.47l-7.57-7.16Z" style="fill:#57E1BA"></path><polygon points="120 296.23 116.66 308.43 109.01 309.62 120 296.23" style="fill:#57E1BA;opacity:0.8"></polygon><polygon points="120 296.23 116.66 308.43 109.01 309.62 120 296.23" style="fill:#fff;opacity:0.8"></polygon><path d="M164.83,199.61,154.49,229.8,146,235.1s-4.5,14.75-4.45,13.81.52-17.47.52-17.47l-7.57-7.16Z" style="fill:#fff;opacity:0.8"></path><path d="M218.65,307.36h0a.47.47,0,0,1-.44-.52c4.1-50.75,32.35-72.46,32.63-72.68a.49.49,0,1,1,.59.79c-.28.21-28.18,21.69-32.25,72A.49.49,0,0,1,218.65,307.36Z" style="fill:#57E1BA"></path><path d="M244.47,241.44a.48.48,0,0,1-.46-.32.49.49,0,0,1,.29-.63c.18-.06,4.45-1.61,11.61-.4a.49.49,0,0,1-.16,1c-6.88-1.17-11.07.33-11.11.35Z" style="fill:#57E1BA"></path><path d="M239.34,247.79a.49.49,0,0,1-.49-.46c-.77-15.27,7.58-27.56,7.67-27.68a.49.49,0,0,1,.68-.13.49.49,0,0,1,.12.68c-.08.12-8.25,12.16-7.49,27.08a.48.48,0,0,1-.46.51Z" style="fill:#57E1BA"></path><path d="M231.21,261.07a.45.45,0,0,1-.34-.14.48.48,0,0,1,0-.69c.06-.06,6.36-6.38,15.06-3.66a.49.49,0,1,1-.3.93c-8.13-2.54-14,3.36-14.06,3.42A.52.52,0,0,1,231.21,261.07Z" style="fill:#57E1BA"></path><path d="M227.05,270.27a.48.48,0,0,1-.44-.28c-.15-.31-3.67-7.86-2.35-18.87a.48.48,0,0,1,.54-.43.5.5,0,0,1,.43.55,36.6,36.6,0,0,0,2.26,18.33.5.5,0,0,1-.23.66A.52.52,0,0,1,227.05,270.27Z" style="fill:#57E1BA"></path><path d="M219.59,325.38a.48.48,0,0,1-.49-.45l-1.18-13.35c-3.69-44.39-35.43-73.39-35.75-73.67a.5.5,0,0,1,0-.7.49.49,0,0,1,.69,0c.32.29,32.35,29.53,36.07,74.33l1.19,13.35a.49.49,0,0,1-.46.52Z" style="fill:#57E1BA"></path><path d="M195.43,254.1h-.08l-.14-.05-.16-.06a31.79,31.79,0,0,0-12.66-1.91.49.49,0,0,1-.07-1,32.67,32.67,0,0,1,13.06,2l.17.06.09,0a.49.49,0,0,1,.27.53A.48.48,0,0,1,195.43,254.1Z" style="fill:#57E1BA"></path><path d="M200,259.65h0a.51.51,0,0,1-.47-.52c.64-13.17-6.59-23.69-6.67-23.8a.49.49,0,0,1,.8-.56c.08.11,7.51,10.89,6.85,24.41A.49.49,0,0,1,200,259.65Z" style="fill:#57E1BA"></path><path d="M204.74,267.07a.51.51,0,0,1-.33-.13A13.3,13.3,0,0,0,192,264.43a.49.49,0,1,1-.29-.93,14,14,0,0,1,13.34,2.72.5.5,0,0,1,0,.69A.48.48,0,0,1,204.74,267.07Z" style="fill:#57E1BA"></path><path d="M210.91,279.37a.5.5,0,0,1-.21-.05.49.49,0,0,1-.24-.65,32.37,32.37,0,0,0,2-16.2.49.49,0,0,1,.43-.54.47.47,0,0,1,.54.42,32.72,32.72,0,0,1-2.05,16.74A.51.51,0,0,1,210.91,279.37Z" style="fill:#57E1BA"></path><path d="M214.64,288.73c-6.18.39-17-4.89-21.38-10.29s7.53-2.49,6.12-6.88-15.86-.47-18.83-6.73,7.62-5.25,7.06-8.49-11.44-2.1-15.24-8.72,6-3.25,4.34-6-14.17-14-9.25-16.72S184.19,234,188,235.25s4.35-7.34,9.44-3.49,2.19,21.79,8.08,23.89c4.38,1.55,2.19-6.51,7.24-4.67C221.63,254.2,217.14,288.57,214.64,288.73Z" style="fill:#57E1BA"></path><g style="opacity:0.2"><path d="M214.64,288.73c-6.18.39-17-4.89-21.38-10.29s7.53-2.49,6.12-6.88-15.86-.47-18.83-6.73,7.62-5.25,7.06-8.49-11.44-2.1-15.24-8.72,6-3.25,4.34-6-14.17-14-9.25-16.72S184.19,234,188,235.25s4.35-7.34,9.44-3.49,2.19,21.79,8.08,23.89c4.38,1.55,2.19-6.51,7.24-4.67C221.63,254.2,217.14,288.57,214.64,288.73Z" style="fill:#fff"></path></g><path d="M223.2,280.52c.11.17-.78,1.09,2.28,1.09,7.53,0,20.8-1.05,25.51-8.09,6.73-10-9.67-8.48-8.29-13.93s19.21-1.77,22.35-9.6-9.65-5.8-9.22-9.77,14.12.59,18.23-7.74-7.49-3.49-5.72-6.94,16.14-18.12,10-21-19.63,12.36-24.2,14.12-6.22-12.58-12.11-7.52-1,26.62-8,29.61c-5.2,2.23-2.64-5.68-9.15-5.11C216,236.4,214.33,267,223.2,280.52Z" style="fill:#57E1BA"></path><g style="opacity:0.30000000000000004"><path d="M223.2,280.52c.11.17-.78,1.09,2.28,1.09,7.53,0,20.8-1.05,25.51-8.09,6.73-10-9.67-8.48-8.29-13.93s19.21-1.77,22.35-9.6-9.65-5.8-9.22-9.77,14.12.59,18.23-7.74-7.49-3.49-5.72-6.94,16.14-18.12,10-21-19.63,12.36-24.2,14.12-6.22-12.58-12.11-7.52-1,26.62-8,29.61c-5.2,2.23-2.64-5.68-9.15-5.11C216,236.4,214.33,267,223.2,280.52Z" style="fill:#fff"></path></g><path d="M218.44,308.52h-.06A.49.49,0,0,1,218,308c0-.09.07-1,.15-2.69.12-2.47.33-7.63.25-14.54a1.49,1.49,0,0,0,0-.3c-.09-7.72-.5-15.32-1.23-22.6-.67-6.79-1.62-13.38-2.84-19.59a160,160,0,0,0-4-15.84.06.06,0,0,1,0,0h0c-.23-.77-.48-1.53-.73-2.3-.21-.62-.42-1.25-.64-1.87-.57-1.63-1.09-3.18-1.53-4.62-1-3.16-1.87-6.33-2.61-9.4-.44-1.84-.84-3.66-1.18-5.39a119.18,119.18,0,0,1-2.25-19.95c-.07-2.63,0-5.27.11-7.82a77.9,77.9,0,0,1,.86-8c0-.19.06-.37.09-.54l0-.24a.47.47,0,0,1,.14-.33.48.48,0,0,1,.69,0,.55.55,0,0,1,.14.49h0l-.05.25c0,.18,0,.36-.08.55a73,73,0,0,0-.85,7.89c-.14,2.52-.18,5.13-.11,7.74a117.16,117.16,0,0,0,2.23,19.78c.34,1.72.73,3.52,1.18,5.35.72,3.05,1.59,6.19,2.58,9.34.45,1.43,1,3,1.52,4.58l.65,1.89c.25.77.5,1.54.74,2.31,0,0,0,0,0,0h0a156.06,156.06,0,0,1,4,15.95c1.22,6.24,2.18,12.86,2.86,19.68.72,7.31,1.14,14.94,1.23,22.67,0,.11,0,.22,0,.35.08,6.91-.13,12.09-.26,14.57-.07,1.68-.14,2.68-.15,2.77A.49.49,0,0,1,218.44,308.52Z" style="fill:#57E1BA"></path><path d="M202.93,172.42l0,0s0,0,0,0a14.61,14.61,0,0,1,2.7-2.06,14.42,14.42,0,0,1,3.4-1.46" style="fill:#57E1BA"></path><path d="M202.93,172.9a.43.43,0,0,1-.19,0,.48.48,0,0,1-.25-.64.44.44,0,0,1,.1-.15l0,0h0a15.47,15.47,0,0,1,2.79-2.13,15.2,15.2,0,0,1,3.53-1.51.49.49,0,0,1,.6.34.48.48,0,0,1-.34.6,14,14,0,0,0-3.29,1.41,14.26,14.26,0,0,0-2.6,2h0A.51.51,0,0,1,202.93,172.9Z" style="fill:#57E1BA"></path><path d="M202,181.54a.51.51,0,0,1-.31-.11l-3.29-2.73a.49.49,0,1,1,.62-.76l3.3,2.73a.5.5,0,0,1,.06.69A.49.49,0,0,1,202,181.54Z" style="fill:#57E1BA"></path><path d="M207.88,224a.53.53,0,0,1-.49-.51h0a12,12,0,0,1,.67-2.67,12.51,12.51,0,0,1,1.81-3.4,12.77,12.77,0,0,1,2-2.13.49.49,0,0,1,.69,0,.48.48,0,0,1-.05.69,12.12,12.12,0,0,0-1.82,2,11.72,11.72,0,0,0-1.68,3.16,11.58,11.58,0,0,0-.62,2.38.46.46,0,0,1-.47.47Z" style="fill:#57E1BA"></path><path d="M210.8,232.75a.49.49,0,0,1-.45-.29,8.21,8.21,0,0,0-4.88-4.41.49.49,0,0,1,.31-.93,9.26,9.26,0,0,1,5.47,4.94.5.5,0,0,1-.25.65A.71.71,0,0,1,210.8,232.75Z" style="fill:#57E1BA"></path><path d="M218.25,276.29c-1.12-1.23-2.13-6.06-2.68-8.66-.13-.62-.24-1.15-.33-1.53" style="fill:#57E1BA"></path><path d="M218.25,276.78a.49.49,0,0,1-.37-.16c-1.11-1.23-2-5.23-2.79-8.89-.13-.61-.24-1.14-.33-1.52a.5.5,0,0,1,.37-.59.47.47,0,0,1,.58.37c.1.38.21.91.34,1.54.5,2.37,1.53,7.3,2.56,8.43a.49.49,0,0,1,0,.69A.5.5,0,0,1,218.25,276.78Z" style="fill:#57E1BA"></path><path d="M205.29,214.6a.49.49,0,0,1-.49-.45c-.06-.8-1.31-19.66,9.09-27.2a.49.49,0,1,1,.58.79c-10,7.22-8.71,26.15-8.7,26.34a.49.49,0,0,1-.45.52Z" style="fill:#57E1BA"></path><path d="M206.15,255.61C205,260.18,215,268.33,215,268.33s12.78-2.17,14-6.74-2.39-11.79-8.7-13.44S207.34,251.05,206.15,255.61Z" style="fill:#57E1BA"></path><path d="M193,201.42c1.44,4.73,10.78,7.72,10.78,7.72s6.09-7.69,4.65-12.42-6.76-9.78-11-8.49S191.54,196.69,193,201.42Z" style="fill:#57E1BA"></path><path d="M217.89,215.68a12.32,12.32,0,0,1-3.85,2.4,4.18,4.18,0,0,1-4.25-.81c-1.3-1.37-1.07-3.59-.36-5.34,1.39-3.46,6.83-9.48,11.27-8C227.11,206,220.61,213.47,217.89,215.68Z" style="fill:#57E1BA"></path><path d="M205.36,224.9c.87,1,1.8,2.25,1.4,3.51a2.64,2.64,0,0,1-2.84,1.55,7.77,7.77,0,0,1-3.19-1.39c-2.29-1.45-7-4.49-4.22-7.65S203.52,222.82,205.36,224.9Z" style="fill:#57E1BA"></path><path d="M222.09,180.91a2.29,2.29,0,0,1,2.16,1.59c.23,1.1-.64,2.11-1.5,2.83-2.13,1.8-8.58,6.69-10.26,2.32C210.91,183.52,219.14,180.71,222.09,180.91Z" style="fill:#57E1BA"></path><path d="M209.2,166.85c1.38.07,2.72-.49,4.1-.46s2.95,1.06,2.71,2.42-1.76,1.74-3,1.87a24.39,24.39,0,0,1-6.5-.16,2,2,0,0,1-1.35-.61c-.59-.79.25-1.93,1.18-2.26s2-.28,2.84-.81Z" style="fill:#57E1BA"></path><path d="M196.22,176.87c-1.38.1-2.74-.43-4.11-.37s-2.93,1.13-2.66,2.48,1.79,1.7,3.06,1.81a24.84,24.84,0,0,0,6.5-.31,2,2,0,0,0,1.33-.63c.57-.81-.29-1.93-1.23-2.24a13.51,13.51,0,0,1-2.86-.75Z" style="fill:#57E1BA"></path><path d="M202.55,174.25h0a.51.51,0,0,1-.46-.53c.19-2.68-.09-5.25-.6-5.4a.48.48,0,0,1,.27-.93c1.56.45,1.44,4.63,1.31,6.4A.49.49,0,0,1,202.55,174.25Z" style="fill:#57E1BA"></path><path d="M203.46,168c-.91-1.83-1.9-3.74-3.6-4.87s-4.36-1.1-5.49.6c-1.26,1.91.21,4.65,2.31,5.55s4.51.49,6.76.07c0-.33,0-.67,0-1Z" style="fill:#57E1BA"></path><path d="M220,325h-.09a.49.49,0,0,1-.39-.57c3.28-17.49,13.23-25.12,13.33-25.2a.5.5,0,0,1,.69.1.49.49,0,0,1-.1.69c-.1.07-9.75,7.5-13,24.59A.48.48,0,0,1,220,325Z" style="fill:#57E1BA"></path><path d="M230.24,302.87a.49.49,0,0,1-.46-.32.49.49,0,0,1,.29-.62,10.58,10.58,0,0,1,5.15-.19.49.49,0,0,1-.17,1,10.13,10.13,0,0,0-4.64.13A.47.47,0,0,1,230.24,302.87Z" style="fill:#57E1BA"></path><path d="M228,305.61a.48.48,0,0,1-.48-.46,21.24,21.24,0,0,1,3.35-12.1.48.48,0,0,1,.68-.12.49.49,0,0,1,.12.68,20.73,20.73,0,0,0-3.18,11.49.48.48,0,0,1-.46.51Z" style="fill:#57E1BA"></path><path d="M224.53,311.33a.45.45,0,0,1-.34-.14.49.49,0,0,1,0-.69,6.92,6.92,0,0,1,6.77-1.65.49.49,0,0,1-.29.94,6,6,0,0,0-5.78,1.39A.47.47,0,0,1,224.53,311.33Z" style="fill:#57E1BA"></path><path d="M222.74,315.29a.49.49,0,0,1-.44-.27,16.07,16.07,0,0,1-1-8.29.48.48,0,0,1,.54-.42.49.49,0,0,1,.43.54,15.59,15.59,0,0,0,1,7.75.49.49,0,0,1-.23.65A.52.52,0,0,1,222.74,315.29Z" style="fill:#57E1BA"></path><path d="M221,319.25c0,.08-.36.45,1,.54,3.45.23,9.53.16,11.73-2.77,3.15-4.17-4.38-4-3.71-6.31s8.81-.2,10.29-3.52-4.38-2.81-4.16-4.52,6.46.67,8.39-2.84-3.4-1.74-2.57-3.19,7.5-7.41,4.68-8.85-9.06,4.81-11.16,5.44-2.78-5.67-5.51-3.64-.62,11.57-3.84,12.66c-2.4.82-1.17-2.55-4.16-2.49C217.92,299.83,217,313.1,221,319.25Z" style="fill:#57E1BA"></path><g style="opacity:0.30000000000000004"><path d="M221,319.25c0,.08-.36.45,1,.54,3.45.23,9.53.16,11.73-2.77,3.15-4.17-4.38-4-3.71-6.31s8.81-.2,10.29-3.52-4.38-2.81-4.16-4.52,6.46.67,8.39-2.84-3.4-1.74-2.57-3.19,7.5-7.41,4.68-8.85-9.06,4.81-11.16,5.44-2.78-5.67-5.51-3.64-.62,11.57-3.84,12.66c-2.4.82-1.17-2.55-4.16-2.49C217.92,299.83,217,313.1,221,319.25Z" style="fill:#fff"></path></g><path d="M219.58,325.44a.48.48,0,0,1-.47-.37,53.52,53.52,0,0,0-14-23.79.49.49,0,0,1,.65-.73,54.61,54.61,0,0,1,14.26,24.28.48.48,0,0,1-.35.59Z" style="fill:#57E1BA"></path><path d="M211,308.33h-.1l-.1,0-.06,0a13.42,13.42,0,0,0-5.35-.81.48.48,0,0,1-.51-.46.47.47,0,0,1,.45-.51,14.41,14.41,0,0,1,5.74.86l.07,0a.48.48,0,0,1,.34.56A.49.49,0,0,1,211,308.33Zm.14-1,.1.05Zm-.05,0Z" style="fill:#57E1BA"></path><path d="M213,310.72h0a.49.49,0,0,1-.46-.52,18,18,0,0,0-2.83-10.07.5.5,0,0,1,.81-.57,18.78,18.78,0,0,1,3,10.69A.49.49,0,0,1,213,310.72Z" style="fill:#57E1BA"></path><path d="M215.05,313.91a.5.5,0,0,1-.34-.13,5.34,5.34,0,0,0-5.05-1,.5.5,0,0,1-.62-.33.49.49,0,0,1,.33-.61,6.33,6.33,0,0,1,6,1.24.48.48,0,0,1,0,.69A.47.47,0,0,1,215.05,313.91Z" style="fill:#57E1BA"></path><path d="M217.7,319.21a.52.52,0,0,1-.21,0,.5.5,0,0,1-.23-.66,13.62,13.62,0,0,0,.82-6.82.5.5,0,0,1,.43-.55.48.48,0,0,1,.54.43,14.23,14.23,0,0,1-.91,7.36A.47.47,0,0,1,217.7,319.21Z" style="fill:#57E1BA"></path><path d="M219.31,323c-2.66.16-7.32-2.11-9.21-4.44s3.24-1.07,2.64-3-6.83-.2-8.11-2.9,3.28-2.26,3-3.66-4.93-.9-6.57-3.75,2.57-1.4,1.87-2.58-6.1-6.05-4-7.21,7.21,3.94,8.86,4.46,1.87-3.16,4.06-1.5,1,9.38,3.48,10.29c1.89.67,1-2.81,3.13-2C222.32,308.09,220.39,322.9,219.31,323Z" style="fill:#57E1BA"></path><g style="opacity:0.2"><path d="M219.31,323c-2.66.16-7.32-2.11-9.21-4.44s3.24-1.07,2.64-3-6.83-.2-8.11-2.9,3.28-2.26,3-3.66-4.93-.9-6.57-3.75,2.57-1.4,1.87-2.58-6.1-6.05-4-7.21,7.21,3.94,8.86,4.46,1.87-3.16,4.06-1.5,1,9.38,3.48,10.29c1.89.67,1-2.81,3.13-2C222.32,308.09,220.39,322.9,219.31,323Z" style="fill:#fff"></path></g><path d="M120.54,325.41h-.06A.45.45,0,0,1,120,325c0-.08-.16-.92-.45-2.38-.42-2.18-1.36-6.73-2.92-12.75l-.07-.26c-1.75-6.72-3.76-13.26-6-19.46-2-5.78-4.31-11.32-6.72-16.48a140.89,140.89,0,0,0-6.88-13l0,0h0l-1.15-1.85c-.31-.49-.63-1-1-1.49-.85-1.3-1.63-2.54-2.33-3.7-1.56-2.55-3-5.12-4.31-7.64-.79-1.52-1.53-3-2.2-4.45a105.91,105.91,0,0,1-6.28-16.93c-.63-2.28-1.17-4.59-1.6-6.85a71.23,71.23,0,0,1-1-7.16c0-.17,0-.33,0-.48l0-.23a.46.46,0,0,1,0-.32.44.44,0,0,1,.6-.16.49.49,0,0,1,.23.39h0l0,.24c0,.16,0,.32,0,.49a66.77,66.77,0,0,0,1,7.07c.42,2.23,1,4.52,1.58,6.78a105.49,105.49,0,0,0,6.23,16.79c.66,1.42,1.39,2.91,2.18,4.41,1.3,2.5,2.74,5.06,4.28,7.59.7,1.16,1.47,2.39,2.31,3.67l1,1.51,1.14,1.85,0,0h0a144,144,0,0,1,6.93,13.06c2.42,5.18,4.69,10.75,6.75,16.56,2.22,6.22,4.23,12.79,6,19.52,0,.09,0,.19.07.3,1.56,6,2.51,10.58,2.93,12.77.3,1.48.46,2.37.47,2.45A.45.45,0,0,1,120.54,325.41Z" style="fill:#57E1BA"></path><path d="M77.54,210s0,0,0,0,0,0,0,0a13.82,13.82,0,0,1,1.91-2.39,13.38,13.38,0,0,1,2.66-2" style="fill:#57E1BA"></path><path d="M77.64,210.39a.37.37,0,0,1-.18,0,.43.43,0,0,1-.36-.5.44.44,0,0,1,.06-.16l0-.05h0a13.25,13.25,0,0,1,4.72-4.55.44.44,0,0,1,.44.77,12.58,12.58,0,0,0-2.57,1.94,13,13,0,0,0-1.84,2.31h0A.46.46,0,0,1,77.64,210.39Z" style="fill:#57E1BA"></path><path d="M78.67,218.14a.49.49,0,0,1-.29,0l-3.47-1.67a.44.44,0,0,1,.38-.8l3.47,1.68a.42.42,0,0,1,.2.58A.41.41,0,0,1,78.67,218.14Z" style="fill:#57E1BA"></path><path d="M93,253.9a.47.47,0,0,1-.54-.33h0a11.29,11.29,0,0,1,0-2.47,11.66,11.66,0,0,1,.84-3.37,12.24,12.24,0,0,1,1.26-2.29.44.44,0,1,1,.72.51,10.9,10.9,0,0,0-1.16,2.11,11.08,11.08,0,0,0-.79,3.13,10.88,10.88,0,0,0,0,2.21.41.41,0,0,1-.3.51Z" style="fill:#57E1BA"></path><path d="M97.46,260.93a.44.44,0,0,1-.45-.16A7.42,7.42,0,0,0,91.8,258a.44.44,0,0,1,.06-.88,8.3,8.3,0,0,1,5.84,3.13.42.42,0,0,1-.08.61A.51.51,0,0,1,97.46,260.93Z" style="fill:#57E1BA"></path><path d="M113.39,297.32c-1.24-.83-3.18-4.83-4.21-7-.25-.52-.46-.95-.63-1.27" style="fill:#57E1BA"></path><path d="M113.49,297.75a.44.44,0,0,1-.35-.06c-1.23-.84-2.9-4.13-4.36-7.16-.25-.51-.46-.94-.62-1.25a.45.45,0,0,1,.79-.41c.16.32.37.76.62,1.28,1,2,2.92,6,4.06,6.8a.44.44,0,0,1,.12.61A.42.42,0,0,1,113.49,297.75Z" style="fill:#57E1BA"></path><path d="M88.72,246.28a.44.44,0,0,1-.52-.29c-.23-.69-5.4-16.87,2-25.71a.44.44,0,0,1,.67.57c-7.13,8.46-1.94,24.7-1.89,24.86a.44.44,0,0,1-.28.56Z" style="fill:#57E1BA"></path><path d="M98.35,281.89c0,4.24,10.51,9.17,10.51,9.17s10.69-4.66,10.74-8.9-4.63-9.78-10.5-9.85S98.41,277.64,98.35,281.89Z" style="fill:#57E1BA"></path><path d="M75.13,237.43c2.28,3.82,11.08,4.41,11.08,4.41s3.64-8,1.36-11.85-8-7.07-11.45-5S72.84,233.62,75.13,237.43Z" style="fill:#57E1BA"></path><path d="M100,244.49a11,11,0,0,1-2.84,2.93,3.73,3.73,0,0,1-3.88.21c-1.43-.91-1.71-2.9-1.47-4.57.46-3.33,3.91-9.76,8.1-9.44C105.91,234.07,101.85,242,100,244.49Z" style="fill:#57E1BA"></path><path d="M91,255.26c1,.67,2.07,1.56,2,2.75a2.38,2.38,0,0,1-2.15,2,7,7,0,0,1-3.08-.52c-2.32-.77-7.08-2.41-5.34-5.77S89,253.84,91,255.26Z" style="fill:#57E1BA"></path><path d="M96.09,213.23a2.07,2.07,0,0,1,2.23.93c.45.9-.1,2-.69,2.79-1.48,2-6,7.7-8.45,4.24C86.9,217.93,93.48,213.7,96.09,213.23Z" style="fill:#57E1BA"></path><path d="M81.8,203.75c1.22-.23,2.27-1,3.48-1.29s2.81.29,2.89,1.53-1.16,1.9-2.23,2.29a21.94,21.94,0,0,1-5.71,1.26,1.83,1.83,0,0,1-1.31-.23c-.69-.57-.2-1.74.54-2.23a12,12,0,0,0,2.31-1.33Z" style="fill:#57E1BA"></path><path d="M72.64,215.31c-1.18.39-2.48.22-3.67.57s-2.31,1.62-1.78,2.74,1.93,1.09,3.06.91a22.51,22.51,0,0,0,5.61-1.67,1.82,1.82,0,0,0,1-.84c.33-.83-.67-1.62-1.55-1.69a12.42,12.42,0,0,1-2.66,0Z" style="fill:#57E1BA"></path><path d="M77.6,211.65h0a.43.43,0,0,1-.51-.35c-.41-2.38-1.22-4.56-1.7-4.58a.44.44,0,0,1-.42-.46.44.44,0,0,1,.46-.42c1.46.06,2.25,3.73,2.53,5.31A.45.45,0,0,1,77.6,211.65Z" style="fill:#57E1BA"></path><path d="M77,206a10.6,10.6,0,0,0-4.2-3.48c-1.73-.61-4,0-4.66,1.72-.69,1.93,1.19,4,3.22,4.34s4-.55,5.91-1.4l-.21-.88Z" style="fill:#57E1BA"></path><path d="M115.65,324.8h-.08a.47.47,0,0,1-.38-.55C118.35,307.39,127.93,300,128,300a.47.47,0,0,1,.66.09.48.48,0,0,1-.09.66c-.1.07-9.4,7.23-12.48,23.69A.48.48,0,0,1,115.65,324.8Z" style="fill:#57E1BA"></path><path d="M125.57,303.47a.47.47,0,0,1-.17-.91,10.2,10.2,0,0,1,5-.18.48.48,0,0,1,.38.55.47.47,0,0,1-.54.38,9.71,9.71,0,0,0-4.47.13Z" style="fill:#57E1BA"></path><path d="M123.44,306.11a.47.47,0,0,1-.47-.45A20.56,20.56,0,0,1,126.19,294a.48.48,0,0,1,.66-.12.47.47,0,0,1,.12.65,20,20,0,0,0-3.06,11.07.49.49,0,0,1-.45.5Z" style="fill:#57E1BA"></path><path d="M120.06,311.62a.49.49,0,0,1-.33-.14.46.46,0,0,1,0-.66,6.66,6.66,0,0,1,6.52-1.59.47.47,0,0,1,.3.59.46.46,0,0,1-.59.31,5.75,5.75,0,0,0-5.56,1.35A.48.48,0,0,1,120.06,311.62Z" style="fill:#57E1BA"></path><path d="M118.34,315.44a.47.47,0,0,1-.43-.27,15.71,15.71,0,0,1-1-8,.46.46,0,0,1,.53-.41.47.47,0,0,1,.41.52,15,15,0,0,0,.91,7.46.48.48,0,0,1-.22.63A.49.49,0,0,1,118.34,315.44Z" style="fill:#57E1BA"></path><path d="M116.62,319.25c0,.07-.35.43,1,.52,3.32.21,9.19.15,11.31-2.67,3-4-4.22-3.83-3.58-6.08s8.49-.2,9.91-3.39-4.22-2.7-4-4.36,6.23.65,8.09-2.73-3.28-1.67-2.48-3.07,7.22-7.14,4.51-8.53-8.73,4.63-10.75,5.24-2.68-5.46-5.31-3.5-.6,11.14-3.7,12.19c-2.31.79-1.13-2.45-4-2.4C113.69,300.54,112.78,313.32,116.62,319.25Z" style="fill:#57E1BA"></path><g style="opacity:0.30000000000000004"><path d="M116.62,319.25c0,.07-.35.43,1,.52,3.32.21,9.19.15,11.31-2.67,3-4-4.22-3.83-3.58-6.08s8.49-.2,9.91-3.39-4.22-2.7-4-4.36,6.23.65,8.09-2.73-3.28-1.67-2.48-3.07,7.22-7.14,4.51-8.53-8.73,4.63-10.75,5.24-2.68-5.46-5.31-3.5-.6,11.14-3.7,12.19c-2.31.79-1.13-2.45-4-2.4C113.69,300.54,112.78,313.32,116.62,319.25Z" style="fill:#fff"></path></g><path d="M115.29,325.21a.46.46,0,0,1-.45-.35,51.54,51.54,0,0,0-13.46-22.92.47.47,0,0,1,0-.67.46.46,0,0,1,.66,0,52.52,52.52,0,0,1,13.74,23.38.47.47,0,0,1-.34.57Z" style="fill:#57E1BA"></path><path d="M107.06,308.72H107a.19.19,0,0,1-.1,0l-.06,0a12.91,12.91,0,0,0-5.14-.78.46.46,0,0,1-.5-.44.47.47,0,0,1,.44-.5,13.79,13.79,0,0,1,5.53.84l.06,0a.47.47,0,0,1-.14.92Zm.14-.92.1.05Zm0,0Z" style="fill:#57E1BA"></path><path d="M109,311h0a.49.49,0,0,1-.45-.5,17.41,17.41,0,0,0-2.72-9.71.46.46,0,0,1,.12-.65.47.47,0,0,1,.65.11,18,18,0,0,1,2.89,10.3A.47.47,0,0,1,109,311Z" style="fill:#57E1BA"></path><path d="M110.93,314.11a.48.48,0,0,1-.32-.13,5.16,5.16,0,0,0-4.88-1,.47.47,0,0,1-.59-.31.49.49,0,0,1,.31-.59,6.14,6.14,0,0,1,5.8,1.19.47.47,0,0,1,0,.67A.5.5,0,0,1,110.93,314.11Z" style="fill:#57E1BA"></path><path d="M113.48,319.21a.51.51,0,0,1-.2,0,.48.48,0,0,1-.22-.63,13.21,13.21,0,0,0,.79-6.58.46.46,0,0,1,.41-.52.47.47,0,0,1,.53.41,13.81,13.81,0,0,1-.88,7.09A.47.47,0,0,1,113.48,319.21Z" style="fill:#57E1BA"></path><path d="M115,322.83c-2.56.16-7-2-8.87-4.27s3.13-1,2.54-2.86-6.58-.19-7.81-2.79,3.16-2.18,2.93-3.52-4.75-.88-6.32-3.62,2.47-1.35,1.79-2.49-5.88-5.82-3.83-6.94,6.94,3.79,8.53,4.29,1.81-3,3.92-1.44.91,9,3.35,9.91c1.82.64.91-2.7,3-1.94C117.94,308.5,116.07,322.76,115,322.83Z" style="fill:#57E1BA"></path><g style="opacity:0.2"><path d="M115,322.83c-2.56.16-7-2-8.87-4.27s3.13-1,2.54-2.86-6.58-.19-7.81-2.79,3.16-2.18,2.93-3.52-4.75-.88-6.32-3.62,2.47-1.35,1.79-2.49-5.88-5.82-3.83-6.94,6.94,3.79,8.53,4.29,1.81-3,3.92-1.44.91,9,3.35,9.91c1.82.64.91-2.7,3-1.94C117.94,308.5,116.07,322.76,115,322.83Z" style="fill:#fff"></path></g><polygon points="119.54 325.29 128.82 325.29 123.65 303.37 119.52 303.87 119.54 325.29" style="fill:#263238"></polygon><polygon points="92.93 312.36 101.71 310.6 105.61 314.95 110.03 310.41 116.89 314.52 125.13 309.39 135.85 312.23 141.91 305.88 151.43 304.67 147.91 299.46 116.5 253.03 95.39 306.17 92.93 312.36" style="fill:#fff"></polygon><polygon points="95.39 306.17 101.16 305.01 105.06 309.37 109.48 304.83 116.34 308.94 124.58 303.81 135.29 306.65 141.35 300.3 147.91 299.46 116.5 253.03 95.39 306.17" style="fill:#57E1BA"></polygon><polygon points="95.39 306.17 101.16 305.01 105.06 309.37 109.48 304.83 116.34 308.94 124.58 303.81 135.29 306.65 141.35 300.3 147.91 299.46 116.5 253.03 95.39 306.17" style="fill:#fff;opacity:0.2"></polygon><polygon points="95.46 290.56 102.81 289.02 106.13 293.18 109.8 288.95 115.6 292.92 122.47 288.19 131.49 291 136.51 285.08 144.49 284.06 140.78 277.94 114.63 234.84 97.92 283.41 95.46 290.56" style="fill:#fff"></polygon><polygon points="97.92 283.41 102.16 282.51 105.49 286.68 109.16 282.45 114.96 286.41 121.82 281.68 130.84 284.49 135.87 278.57 140.78 277.94 114.63 234.84 97.92 283.41" style="fill:#57E1BA"></polygon><polygon points="97.92 283.41 102.16 282.51 105.49 286.68 109.16 282.45 114.96 286.41 121.82 281.68 130.84 284.49 135.87 278.57 140.78 277.94 114.63 234.84 97.92 283.41" style="fill:#fff;opacity:0.30000000000000004"></polygon><polygon points="100.42 262.99 104.68 261.06 107.38 264.6 110.17 261.1 114.69 264.45 119.8 260.64 126.45 263.03 130.04 258.34 134.43 257.81 131.89 252.78 113.31 216.05 102.15 256.7 100.42 262.99" style="fill:#f0f0f0"></polygon><polygon points="102.15 256.7 104.16 255.78 106.86 259.33 109.65 255.83 114.17 259.19 119.28 255.37 125.92 257.76 129.52 253.07 131.89 252.78 113.31 216.05 102.15 256.7" style="fill:#57E1BA"></polygon><polygon points="102.15 256.7 104.16 255.78 106.86 259.33 109.65 255.83 114.17 259.19 119.28 255.37 125.92 257.76 129.52 253.07 131.89 252.78 113.31 216.05 102.15 256.7" style="fill:#fff;opacity:0.5"></polygon><path d="M171.07,317.32s1.79-9,8.78-11,9.71-4.07,9.71-4.07S187.4,316.21,171.07,317.32Z" style="fill:#57E1BA"></path><g style="clip-path:url(#freepik--clip-path--inject-116)"><path d="M171.07,317.32s1.79-9,8.78-11,9.71-4.07,9.71-4.07S187.4,316.21,171.07,317.32Z" style="fill:#fff;opacity:0.2"></path></g><path d="M171.27,317.26a.48.48,0,0,1-.33-.13.48.48,0,0,1,0-.7,34.88,34.88,0,0,1,12.93-9,.52.52,0,0,1,.66.27.5.5,0,0,1-.27.66,33.75,33.75,0,0,0-12.57,8.73A.52.52,0,0,1,171.27,317.26Z" style="fill:#57E1BA"></path><path d="M171.69,323.88s.54-14.36-9.4-19.86-13.31-9.7-13.31-9.7S147.23,316.28,171.69,323.88Z" style="fill:#57E1BA"></path><g style="opacity:0.2"><path d="M171.69,323.88s.54-14.36-9.4-19.86-13.31-9.7-13.31-9.7S147.23,316.28,171.69,323.88Z" style="fill:#fff"></path></g><path d="M170.84,323.48a.51.51,0,0,1-.44-.26,62.07,62.07,0,0,0-18.46-20.08.5.5,0,0,1-.12-.7.49.49,0,0,1,.69-.12,63.14,63.14,0,0,1,18.77,20.42.51.51,0,0,1-.2.68A.53.53,0,0,1,170.84,323.48Z" style="fill:#57E1BA"></path><path d="M171.63,325.48a.5.5,0,0,1-.5-.48c-.92-23,.21-28.2.25-28.41a.5.5,0,0,1,1,.22c0,.06-1.14,5.4-.23,28.15a.52.52,0,0,1-.48.52Z" style="fill:#57E1BA"></path><path d="M166,281.57c.31,1.75,2.82,7.74,4.57,7.43s2.09-6.79,1.78-8.55a3.22,3.22,0,1,0-6.35,1.12Z" style="fill:#fff"></path><path d="M175.78,300.33c-.31-1.75-2.82-7.74-4.57-7.43s-2.09,6.79-1.78,8.54a3.22,3.22,0,0,0,6.35-1.11Z" style="fill:#fff"></path><path d="M161.48,295.86c1.76-.3,7.74-2.82,7.44-4.57s-6.8-2.09-8.55-1.78a3.22,3.22,0,1,0,1.11,6.35Z" style="fill:#fff"></path><path d="M180.25,286c-1.76.31-7.75,2.82-7.44,4.58s6.79,2.08,8.55,1.78a3.23,3.23,0,0,0-1.11-6.36Z" style="fill:#fff"></path><path d="M160.75,287.79c1.46,1,7.47,3.48,8.5,2s-3.33-6.28-4.79-7.3a3.23,3.23,0,0,0-3.71,5.28Z" style="fill:#fff"></path><path d="M181,294.11c-1.46-1-7.47-3.48-8.5-2s3.33,6.28,4.79,7.31a3.23,3.23,0,0,0,3.71-5.28Z" style="fill:#fff"></path><path d="M167.71,301.06c1-1.46,3.48-7.47,2-8.49s-6.28,3.32-7.3,4.78a3.23,3.23,0,1,0,5.28,3.71Z" style="fill:#fff"></path><path d="M174,280.84c-1,1.46-3.48,7.47-2,8.49s6.28-3.33,7.3-4.79a3.22,3.22,0,0,0-5.28-3.7Z" style="fill:#fff"></path><path d="M167.1,291.61a3.82,3.82,0,1,0,3.11-4.42A3.83,3.83,0,0,0,167.1,291.61Z" style="fill:#57E1BA"></path><path d="M195.05,320.54s1.13-5.69,5.54-6.92,6.13-2.57,6.13-2.57S205.36,319.84,195.05,320.54Z" style="fill:#57E1BA"></path><g style="clip-path:url(#freepik--clip-path-2--inject-116)"><path d="M195.05,320.54s1.13-5.69,5.54-6.92,6.13-2.57,6.13-2.57S205.36,319.84,195.05,320.54Z" style="fill:#fff;opacity:0.2"></path></g><path d="M195.18,320.68a.5.5,0,0,1-.33-.12.51.51,0,0,1,0-.71,22.24,22.24,0,0,1,8.24-5.72.5.5,0,1,1,.38.92,21.36,21.36,0,0,0-7.87,5.46A.46.46,0,0,1,195.18,320.68Z" style="fill:#57E1BA"></path><path d="M189.17,323a3.36,3.36,0,0,0,5-4,10.78,10.78,0,0,0-4.66-5.55c-6.27-3.47-8.4-6.12-8.4-6.12A18.36,18.36,0,0,0,189.17,323Z" style="fill:#57E1BA"></path><g style="opacity:0.2"><path d="M189.09,322.94a3.39,3.39,0,0,0,5-4.09,10.71,10.71,0,0,0-4.62-5.45c-6.27-3.47-8.4-6.12-8.4-6.12A18.36,18.36,0,0,0,189.09,322.94Z" style="fill:#fff"></path></g><path d="M194.91,325.87a.51.51,0,0,1-.44-.26A39.08,39.08,0,0,0,182.87,313a.5.5,0,0,1,.58-.82,39.89,39.89,0,0,1,11.89,12.95.5.5,0,0,1-.19.68A.53.53,0,0,1,194.91,325.87Z" style="fill:#57E1BA"></path><path d="M195.44,325.55a.5.5,0,0,1-.49-.48c-.45-11.21-.26-18.63.35-18.69s.68.62.75,1.07a.5.5,0,0,1-.36.56c0,1.18,0,11.2.25,17a.49.49,0,0,1-.47.52Z" style="fill:#57E1BA"></path><path d="M191.82,298c.19,1.11,1.78,4.89,2.89,4.7s1.31-4.29,1.12-5.4a2,2,0,0,0-4,.7Z" style="fill:#fff"></path><path d="M198,309.81c-.19-1.1-1.78-4.88-2.88-4.69s-1.32,4.29-1.12,5.4a2,2,0,1,0,4-.71Z" style="fill:#fff"></path><path d="M189,307c1.11-.2,4.89-1.78,4.69-2.89s-4.28-1.32-5.39-1.12a2,2,0,0,0,.7,4Z" style="fill:#fff"></path><path d="M200.84,300.79c-1.1.2-4.88,1.78-4.69,2.89s4.29,1.31,5.39,1.12a2,2,0,1,0-.7-4Z" style="fill:#fff"></path><path d="M188.54,301.9c.92.65,4.72,2.2,5.36,1.28s-2.1-4-3-4.61a2,2,0,0,0-2.34,3.33Z" style="fill:#fff"></path><path d="M201.3,305.89c-.92-.65-4.71-2.2-5.36-1.28s2.1,4,3,4.61a2,2,0,1,0,2.34-3.33Z" style="fill:#fff"></path><path d="M192.93,310.27c.65-.92,2.2-4.71,1.28-5.35s-4,2.1-4.61,3a2,2,0,1,0,3.33,2.33Z" style="fill:#fff"></path><path d="M196.92,297.51c-.65.92-2.2,4.72-1.28,5.36s4-2.1,4.61-3a2,2,0,0,0-3.33-2.34Z" style="fill:#fff"></path><path d="M192.55,304.31a2.41,2.41,0,1,0,2-2.79A2.41,2.41,0,0,0,192.55,304.31Z" style="fill:#57E1BA"></path><path d="M147.92,320.52s1.12-5.69,5.54-6.92a19.21,19.21,0,0,0,6.13-2.57S158.22,319.82,147.92,320.52Z" style="fill:#57E1BA"></path><g style="clip-path:url(#freepik--clip-path-3--inject-116)"><path d="M147.92,320.52s1.12-5.69,5.54-6.92a19.21,19.21,0,0,0,6.13-2.57S158.22,319.82,147.92,320.52Z" style="fill:#fff;opacity:0.2"></path></g><path d="M148,320.66a.54.54,0,0,1-.33-.12.51.51,0,0,1,0-.71,22.2,22.2,0,0,1,8.23-5.72.5.5,0,0,1,.66.27.51.51,0,0,1-.27.65,21.1,21.1,0,0,0-7.87,5.47A.51.51,0,0,1,148,320.66Z" style="fill:#57E1BA"></path><path d="M148.31,323.92s.34-9.06-5.93-12.54-8.4-6.12-8.4-6.12S132.87,319.12,148.31,323.92Z" style="fill:#57E1BA"></path><g style="opacity:0.2"><path d="M148.31,323.92s.34-9.06-5.93-12.54-8.4-6.12-8.4-6.12S132.87,319.12,148.31,323.92Z" style="fill:#fff"></path></g><path d="M147.77,323.85a.51.51,0,0,1-.44-.26A38.89,38.89,0,0,0,135.74,311a.5.5,0,0,1,.57-.82,40,40,0,0,1,11.9,12.95.51.51,0,0,1-.2.68A.5.5,0,0,1,147.77,323.85Z" style="fill:#57E1BA"></path><path d="M148.21,325.29a.5.5,0,0,1-.5-.48c-.5-12.56-.06-17.88.51-18,.25,0,.56.09.68.54a.5.5,0,0,1-.27.59c-.09.85-.24,8.72.08,16.81a.51.51,0,0,1-.48.52Z" style="fill:#57E1BA"></path><path d="M144.69,298c.19,1.1,1.78,4.88,2.88,4.69s1.32-4.29,1.12-5.4a2,2,0,1,0-4,.71Z" style="fill:#fff"></path><path d="M150.89,309.8c-.19-1.11-1.78-4.89-2.89-4.7s-1.31,4.29-1.12,5.4a2,2,0,0,0,4-.7Z" style="fill:#fff"></path><path d="M141.87,307c1.1-.2,4.88-1.78,4.69-2.89s-4.29-1.31-5.39-1.12a2,2,0,1,0,.7,4Z" style="fill:#fff"></path><path d="M153.71,300.77c-1.11.2-4.89,1.78-4.69,2.89s4.28,1.32,5.39,1.12a2,2,0,0,0-.7-4Z" style="fill:#fff"></path><path d="M141.41,301.88c.92.65,4.71,2.2,5.36,1.28s-2.1-4-3-4.61a2,2,0,1,0-2.34,3.33Z" style="fill:#fff"></path><path d="M154.17,305.87c-.92-.65-4.72-2.2-5.36-1.28s2.1,4,3,4.61a2,2,0,0,0,2.34-3.33Z" style="fill:#fff"></path><path d="M145.8,310.26c.64-.92,2.19-4.72,1.27-5.36s-4,2.1-4.61,3a2,2,0,0,0,3.34,2.34Z" style="fill:#fff"></path><path d="M149.78,297.5c-.65.92-2.2,4.71-1.28,5.36s4-2.11,4.61-3a2,2,0,1,0-3.33-2.33Z" style="fill:#fff"></path><path d="M145.41,304.29a2.41,2.41,0,1,0,2-2.79A2.41,2.41,0,0,0,145.41,304.29Z" style="fill:#57E1BA"></path></g><g id="freepik--Character--inject-116"><path d="M176.43,383.87l-8.08,35h10.09l12.74-38.52S183.67,373.9,176.43,383.87Z" style="fill:#263238"></path><path d="M119.4,383.87l-8.08,35h10.09l12.73-38.52S126.64,373.9,119.4,383.87Z" style="fill:#263238"></path><path d="M372.46,373.47l10,45.42H372L357.14,370S365,363.5,372.46,373.47Z" style="fill:#263238"></path><path d="M300.38,356.68l16.56,61.82H306.46l-21.4-65.31S292.86,346.71,300.38,356.68Z" style="fill:#263238"></path><path d="M192.28,396.71s63.22-25.36,103.36-28.66,77.93,10,77.93,10l-9-28.66-2.43-.52c-94.75-16.3-164.08,19.64-167.58,21.48l-.14.08Z" style="fill:#57E1BA"></path><polygon points="192.29 396.71 111.51 395.44 114.87 369.86 194.46 370.46 192.29 396.71" style="fill:#57E1BA"></polygon><polygon points="192.29 396.71 111.51 395.44 114.87 369.86 194.46 370.46 192.29 396.71" style="fill:#fff;opacity:0.1"></polygon><path d="M114.87,369.86l79.58.6.14-.08c3.5-1.84,72.83-37.78,167.58-21.48l2.16.38s-28.16-17.58-89.72-16.45C189.37,334.39,111.09,369.83,114.87,369.86Z" style="fill:#57E1BA"></path><path d="M114.87,369.86l79.58.6.14-.08c3.5-1.84,72.83-37.78,167.58-21.48l2.16.38s-28.16-17.58-89.72-16.45C189.37,334.39,111.09,369.83,114.87,369.86Z" style="fill:#fff;opacity:0.2"></path><path d="M281.65,332.87c34.72,1.62,49.25,6.8,82.6,16.55.64,2.53,29.33-62.93,37.06-80.61a37.23,37.23,0,0,0,3.16-12.39,21,21,0,0,0-1.55-10.37c-4.54-9.85-17.22-12.18-28-13.23-11.05-1.09-11.51-1.3-22.75-.46-18.88,1.43-26.08,11.53-36.61,27.27C300.58,282,289.5,307.27,281.65,332.87Z" style="fill:#57E1BA"></path><g style="opacity:0.1"><path d="M281.65,332.87c34.72,1.62,49.25,6.8,82.6,16.55.64,2.53,29.33-62.93,37.06-80.61a37.23,37.23,0,0,0,3.16-12.39,21,21,0,0,0-1.55-10.37c-4.54-9.85-17.22-12.18-28-13.23-11.05-1.09-11.51-1.3-22.75-.46-18.88,1.43-26.08,11.53-36.61,27.27C300.58,282,289.5,307.27,281.65,332.87Z" style="fill:#fff"></path></g><path d="M364.25,349.42l9.32,28.66c.64,2.52,32.08-79.18,39.82-96.86a37.23,37.23,0,0,0,3.16-12.39c.25-3.58.49-20.14-21.19-30.75a17.84,17.84,0,0,1,7.56,8,21,21,0,0,1,1.55,10.38,37.55,37.55,0,0,1-3.16,12.38c-4.47,10.22-15.9,36.24-24.88,55.93v0c-6.26,13.73-11.34,24.38-12,24.38Z" style="fill:#57E1BA"></path><path d="M327,274.5c-5.05,3.16-8.54-1.45-8-7.61v-.06c3.36-7.6,9.9-17.79,13.54-24.11a11,11,0,0,1,6.31-5.12c9.15-2.7,7.39,10.65,6.3,13.2C341,260.4,327,274.5,327,274.5Z" style="fill:#f7978d"></path><path d="M342.68,243.86c-.19,1-10.06,23.72-12,26.12s13-14.42,16.44-24S342.68,243.86,342.68,243.86Z" style="opacity:0.1;isolation:isolate"></path><path d="M292.91,243.28l5.1,4.08L289.86,254s-3.89-4-3.49-5.5C286.59,247.61,291.16,242.5,292.91,243.28Z" style="fill:#f7978d"></path><polygon points="298.01 247.36 301.21 254.95 295.95 258.43 289.86 254 298.01 247.36" style="fill:#f7978d"></polygon><path d="M300.42,253.9s28.88,7.42,29.06,13.42c.17,5.79-.84,17.7-33.53-8.89Z" style="fill:#f7978d"></path><g id="freepik--group--inject-116"><path d="M314.62,296.54h0a75.36,75.36,0,0,0,22.08,9.22l16.81,4.05c1.42-3.27,6.23-9.94,15.56-28.07,3.81-9.4,7.45-11.63,8.78-27.19l0-.08a4.81,4.81,0,0,0-2.3-6.51l-.08,0c-2.32-1.15-5.25-2.52-8.2-3.67a172.26,172.26,0,0,0-17.12-5.79,52.39,52.39,0,0,0-5.95-1,7.58,7.58,0,0,0-7.15,2.84C332,247.23,323.62,261.64,314.62,296.54Z" style="fill:#57E1BA"></path><g style="opacity:0.7000000000000001"><path d="M314.62,296.54h0a75.36,75.36,0,0,0,22.08,9.22l16.81,4.05c1.42-3.27,6.23-9.94,15.56-28.07,3.81-9.4,7.45-11.63,8.78-27.19l0-.08a4.81,4.81,0,0,0-2.3-6.51l-.08,0c-2.32-1.15-5.25-2.52-8.2-3.67a172.26,172.26,0,0,0-17.12-5.79,52.39,52.39,0,0,0-5.95-1,7.58,7.58,0,0,0-7.15,2.84C332,247.23,323.62,261.64,314.62,296.54Z" style="fill:#fff"></path></g><path d="M367.83,282.68c.42-.07-.35,3.57-6.12,5.66s-29.18-12.76-30.94-18C330.77,270.34,354.36,285.07,367.83,282.68Z" style="opacity:0.1;isolation:isolate"></path><path d="M363.75,280.65c3.6-8.73,8-17.34,11.35-23.55a1.58,1.58,0,0,0-.11-.37c-1-2.9-9.12-2.07-12.29,6.38C359.69,271.14,361.34,277.91,363.75,280.65Z" style="opacity:0.1;isolation:isolate"></path><path d="M354.74,245.16c8.32,3.33,13.13-.72,13.13-.72-2.47-5,2.36-14.53,5.49-19.63l-5.86,2.26-8,3.07a21.75,21.75,0,0,1-.46,2.66,10.79,10.79,0,0,1-.58,1.85v0l-.05.1c-1.07,2.49-3.16,4.2-7.46,3.8C351,238.58,347.65,242.29,354.74,245.16Z" style="fill:#f7978d"></path><path d="M359.51,230.14a21.75,21.75,0,0,1-.46,2.66,10.79,10.79,0,0,1-.58,1.85v0l-.05.1c2.49.29,6.39-1.12,7.54-3.39a12,12,0,0,0,.9-2.33Z" style="opacity:0.2;isolation:isolate"></path><path d="M361.25,217.26s-3.34,2.17-4.62-2c3.27-2.68,2.18-3.6,3.3-6.23a9.15,9.15,0,0,1,7.17-6.07l2.64,1.3C378.46,210.51,361.25,217.26,361.25,217.26Z" style="fill:#263238"></path><path d="M380.51,216.2A10.4,10.4,0,0,0,372.35,204c-8.19-1.85-16.09,6.9-18.92,13.54a10.28,10.28,0,0,0,11.23,14.33c5.7-1,8.38-4.76,13.48-10.8A10.32,10.32,0,0,0,380.51,216.2Z" style="fill:#f7978d"></path><path d="M356.42,219.6s2.14.36,7.55,2.76a4.59,4.59,0,0,1-5.92,1.26,3,3,0,0,1-1.72-3.76Z" style="fill:#263238"></path><path d="M359.92,222.73a5.09,5.09,0,0,0-3.39-.44,3.12,3.12,0,0,0,1.52,1.31,4.9,4.9,0,0,0,3.37.44A3,3,0,0,0,359.92,222.73Z" style="fill:#ff5652"></path><path d="M356.69,219.66a1.36,1.36,0,0,0,.48,1.28,29.21,29.21,0,0,0,5,1.66,1.62,1.62,0,0,0,1.57-.37A44.89,44.89,0,0,0,356.69,219.66Z" style="fill:#fff"></path><path d="M371.38,229s.18-8.42,1.5-10.56a7.51,7.51,0,0,1,7.4-4l2.36,1.76C391.76,226.23,371.38,229,371.38,229Z" style="fill:#263238"></path><path d="M359.13,218.3a3.66,3.66,0,0,1-2.15-2.19,23.6,23.6,0,0,0,5.8-2.65Z" style="fill:#ff5652"></path><path d="M377.28,222.68c-1.63-1.12-4.57.18-6.1,1.43-1.69,1.4-1.91,3.37.17,3.83a7.4,7.4,0,0,0,4.92-.85C378.15,226,378.92,223.79,377.28,222.68Z" style="fill:#f7978d"></path><path d="M366.83,215.68c-.34-.23-1,0-1.32.51s-.37,1.08,0,1.32.89,0,1.32-.5S367.18,215.92,366.83,215.68Z" style="fill:#263238"></path><path d="M361.12,211.27c-.34-.24-.93,0-1.31.5s-.42,1.13-.07,1.37.93,0,1.32-.51S361.47,211.5,361.12,211.27Z" style="fill:#263238"></path><path d="M363.66,209.35a.41.41,0,0,1-.35-.08,3.2,3.2,0,0,0-2.65-.84.37.37,0,0,1-.45-.26v0a.41.41,0,0,1,.28-.46h0a3.92,3.92,0,0,1,3.33,1,.4.4,0,0,1,0,.54A.81.81,0,0,1,363.66,209.35Z" style="fill:#263238"></path><path d="M369.29,215.39a.41.41,0,0,1-.23-.27,3.16,3.16,0,0,0-1.57-2.3.36.36,0,0,1-.19-.48v0a.38.38,0,0,1,.49-.19h0a3.9,3.9,0,0,1,2,2.85.38.38,0,0,1-.31.44A.69.69,0,0,1,369.29,215.39Z" style="fill:#263238"></path><path d="M367.8,258.44c-.46.94-1.05,2.1-1.6,3.19l-1.71,3.28c-1.18,2.16-2.36,4.31-3.61,6.4s3.75-6.59,2.38-4.7a41.43,41.43,0,0,1-4.25,5.17c-.68.69-3.19-1.6-12.49-2.2a24.58,24.58,0,0,1-6.27-1.42c-1.11-.4-2.2-.84-3.28-1.33l-1.61-.75-1.53-.76-4.16,4.81c.57.62,1.05,1.09,1.54,1.63a16.91,16.91,0,0,0,1.57,1.49,35.17,35.17,0,0,0,3.45,2.62c2.54,1.73,21.12,12.05,26.37,9.68,5.28-3.38,6.13-2.51,9.13-7.41,1.49-2.36,2.87-4.68,4.14-7.05.66-1.23,1.25-2.39,1.87-3.62.1-.22.32-.66.62-1.25,2.94-5.94,4.2-13-1.27-17.4L373.27,247Z" style="fill:#57E1BA"></path><path d="M367.8,258.44c-.46.94-1.05,2.1-1.6,3.19l-1.71,3.28c-1.18,2.16.14-.19-1.23,1.7a41.43,41.43,0,0,1-4.25,5.17c-.68.69-3.19-1.6-12.49-2.2a24.58,24.58,0,0,1-6.27-1.42c-1.11-.4-2.2-.84-3.28-1.33l-1.61-.75-2-1-3.65,5.07c.57.62,1.05,1.09,1.54,1.63a16.91,16.91,0,0,0,1.57,1.49,35.17,35.17,0,0,0,3.45,2.62c2.54,1.73,21.12,12.05,26.37,9.68,5.28-3.38,6.13-2.51,9.13-7.41,1.49-2.36,2.87-4.68,4.14-7.05.66-1.23,1.25-2.39,1.87-3.62.1-.22.32-.66.62-1.25,2.94-5.94,4.2-13-1.27-17.4L373.27,247Z" style="fill:#f7978d"></path><path d="M329.47,247.63a1.23,1.23,0,0,0-1.17-1.11l-4.66-.13,2,17.58,4,.16a1,1,0,0,0,1-1.05Z" style="fill:#57E1BA"></path><path d="M329.35,263.05l-1.18-15.45a1.24,1.24,0,0,0-1.16-1.12l1.29,0a1.23,1.23,0,0,1,1.17,1.11l1.18,15.45a1,1,0,0,1-1,1.05l-1.3,0A1,1,0,0,0,329.35,263.05Z" style="fill:#57E1BA"></path><path d="M329.35,263.05l-1.18-15.45a1.24,1.24,0,0,0-1.16-1.12l1.29,0a1.23,1.23,0,0,1,1.17,1.11l1.18,15.45a1,1,0,0,1-1,1.05l-1.3,0A1,1,0,0,0,329.35,263.05Z" style="fill:#fff;opacity:0.4"></path><path d="M322.08,263.92l6.92.2a1,1,0,0,0,1-1.06l-1.19-15.45a1.24,1.24,0,0,0-1.16-1.11l-6.92-.2a1,1,0,0,0-1,1.06l1.18,15.45A1.23,1.23,0,0,0,322.08,263.92Z" style="fill:#263238"></path><path d="M325.77,248.28a1.07,1.07,0,0,0,1,1,.84.84,0,0,0,.88-.92,1.08,1.08,0,0,0-1-1A.84.84,0,0,0,325.77,248.28Z" style="opacity:0.5"></path><path d="M321,262.14l1,1.83s3.15,4.74,7,6.29a3.4,3.4,0,0,0,3.85-1.05l.47-.57a4.38,4.38,0,0,0,.54-.85c.81-1.65.46-2.78-.72-4.16l-2.14-4.16c-.19-.22-3.89-2.77-5-3.89a1.59,1.59,0,0,0-2.44.26l-2.48,3.68A2.5,2.5,0,0,0,321,262.14Z" style="fill:#f7978d"></path></g><polygon points="209.01 347.54 206.7 348.61 202.67 341.36 204.88 339.89 209.01 347.54" style="opacity:0.2"></polygon><g id="freepik--group--inject-116"><path d="M204.57,339.32l5,9.18s24.69-3.27,53.79-26.82l-.05-.47c15.25,5,59.46,8.14,67.31.9a27.19,27.19,0,0,0,7.94-14.49l-24-10s-35.09.82-52.68,7.63C243.48,310.54,204.57,339.32,204.57,339.32Z" style="fill:#57E1BA"></path></g><g id="freepik--group--inject-116"><path d="M204.57,339.32l5,9.18s24.69-3.27,53.79-26.82l-.05-.47c15.25,5,59.46,8.14,67.31.9a27.19,27.19,0,0,0,7.94-14.49l-24-10s-35.09.82-52.68,7.63C243.48,310.54,204.57,339.32,204.57,339.32Z" style="fill:#57E1BA"></path></g><g style="opacity:0.6000000000000001"><g id="freepik--group--inject-116"><path d="M204.57,339.32l5,9.18s24.69-3.27,53.79-26.82l-.05-.47c15.25,5,59.46,8.14,67.31.9a27.19,27.19,0,0,0,7.94-14.49l-24-10s-35.09.82-52.68,7.63C243.48,310.54,204.57,339.32,204.57,339.32Z"></path></g></g><path d="M353.67,309.45s-1.84,15.8-8.08,22.6l-36.95-23.22.46-1.22a9.1,9.1,0,0,0-2.12-9.69h0c2.74-.15,5.7.16,8-1.85h0S321.78,303.21,353.67,309.45Z" style="fill:#57E1BA"></path><g style="opacity:0.6000000000000001"><path d="M353.67,309.45s-1.84,15.8-8.08,22.6l-36.95-23.22.46-1.22a9.1,9.1,0,0,0-2.12-9.69h0c2.74-.15,5.7.16,8-1.85h0S321.78,303.21,353.67,309.45Z"></path></g><g id="freepik--group--inject-116"><polygon points="203.65 330.74 201.79 331.47 201.11 331.73 194.79 334.18 194.15 334.43 194.12 341.87 194.12 342.19 194.69 342.07 197.21 341.5 202.5 340.33 203.67 340.07 206.15 339.52 205.78 338.23 203.65 330.75 203.65 330.74" style="fill:#f7978d"></polygon><polygon points="201.11 331.73 203.54 339.67 203.67 340.07 206.15 339.52 205.78 338.23 203.65 330.75 201.79 331.47 201.11 331.73" style="opacity:0.2"></polygon><path d="M181.08,326.88l.79,1.88s0,0,0,0,0,0,0,0,0,.06,0,.08l.8,1.85.36.81c.18.44.38.9.59,1.38l.42.95c.3.71.58,1.37.84,2,1.65,4,2.09,5.64,3.35,8.85a1.53,1.53,0,0,0,2,.87s7.13-3.77,7-4.08l-2.43-7.31c-.23-.51-6.4-3.45-11-10.6C182.93,322.24,179.69,323.46,181.08,326.88Z" style="fill:#f7978d"></path><path d="M190.32,345.53l-.09.05a1.53,1.53,0,0,1-2-.87c-1.26-3.21-1.7-4.82-3.35-8.85-.26-.63-.54-1.29-.83-2,1,2.33,9.69,7.69,11.47,8.77Z" style="opacity:0.2"></path><path d="M203.46,330.09l.19.65h0l2.13,7.48.37,1.29.31,1.1,2.7-.63,16.09-3.73c11.53-1.13,33.81-11.25,33.81-11.25,14.49,8.58,67.74,21.5,77.41,15.84a28.47,28.47,0,0,0,11.41-13.05l-10-6.43a96.73,96.73,0,0,0-44.76-15c-11.86-.93-25.27-1.41-34.27,0C238.86,307.63,203.46,330.09,203.46,330.09Z" style="fill:#57E1BA"></path></g><polygon points="196.8 345.26 198.36 352.49 201.09 351.22 209.01 347.54 204.88 339.89 203.7 340.68 202.67 341.36 197.34 344.9 196.8 345.26" style="fill:#f7978d"></polygon><path d="M183.1,340.91c2,2.91,4,5.47,5.4,7.57,2.36,3.42,3.11,4.82,4.92,7.55a1.48,1.48,0,0,0,2,.41s5.85-5,5.65-5.22c0,0,0,0,0,0l-3.75-6.31c-.32-.43-7.48-2.86-12.4-7.62a1.4,1.4,0,0,0-1.87.11C182.34,338,182,339.29,183.1,340.91Z" style="fill:#f7978d"></path><path d="M259.06,325a143,143,0,0,1-25.67,11.72,221.92,221.92,0,0,1-26.54,6.8l-2-3.72S273.87,315.15,259.06,325Z" style="opacity:0.30000000000000004"></path><path d="M203.46,330.09l.19.65h0l2.13,7.48.37,1.29.31,1.1,2.7-.63,16.09-3.73c11.53-1.13,33.81-11.25,33.81-11.25,14.49,8.58,67.74,21.5,77.41,15.84,5.15-3.15,9.11-4.74,13.13-15.4h0A80.26,80.26,0,0,0,306,307.36c-4.31-.41-8.63-.69-12.91-1-11.86-.93-25.27-1.41-34.27,0C238.86,307.63,203.46,330.09,203.46,330.09Z" style="fill:#57E1BA"></path><g style="opacity:0.6000000000000001"><path d="M203.46,330.09l.19.65h0l2.13,7.48.37,1.29.31,1.1,2.7-.63,16.09-3.73c11.53-1.13,33.81-11.25,33.81-11.25,14.49,8.58,67.74,21.5,77.41,15.84,5.15-3.15,9.11-4.74,13.13-15.4h0A80.26,80.26,0,0,0,306,307.36c-4.31-.41-8.63-.69-12.91-1-11.86-.93-25.27-1.41-34.27,0C238.86,307.63,203.46,330.09,203.46,330.09Z"></path></g><path d="M309.66,303.69s1.85,4.6,15.8,8-16.06-3.08-31.24-5.32C294.22,306.38,305.81,306.06,309.66,303.69Z" style="opacity:0.30000000000000004"></path><path d="M366.34,204.66a2.11,2.11,0,0,1,.34-2.64,6.11,6.11,0,0,1,2.53-1.37c2.52-.89,5.16-1.8,7.81-1.46,5,.65,8.38,5.48,9.93,10.26a32.35,32.35,0,0,0,2.11,6,6.46,6.46,0,0,0,4.88,3.59,14.47,14.47,0,0,1-6.57,1.86,2.17,2.17,0,0,0,1.2,1.3c-1.4,2.06-4.68,1.9-6.66.39s-3-3.91-4.14-6.14c-2.43-4.91-5.8-9.71-10.81-11.93Z" style="fill:#263238"></path></g></svg>